<?xml version="1.0" encoding="utf-8"?>
<!-- Generator: Adobe Illustrator 23.0.2, SVG Export Plug-In . SVG Version: 6.00 Build 0)  -->
<svg version="1.1" id="Layer_1" xmlns="http://www.w3.org/2000/svg" xmlns:xlink="http://www.w3.org/1999/xlink" x="0px" y="0px"
	 viewBox="0 0 471.4 80.9" style="enable-background:new 0 0 471.4 80.9;" xml:space="preserve">
<style type="text/css">
	.st0{fill:#FFFFFF;}
</style>
<title>logo</title>
<path class="st0" d="M39.2,3.8c10.2,0,17.9,2,21.6,4.6l0.6,16.1h-2.3c-2.5-11-9-17.4-18.9-17.4c-13.1,0-21,12.8-21,31.8
	c0,18.6,7.3,34.3,21,34.3c9.3,0,16.2-5.3,19.1-17.5h2.2l-0.6,16c-4,2.8-12.9,4.8-21.7,4.8C16.2,76.5,0,62.1,0,39.9
	C0,18.5,16.2,3.8,39.2,3.8z"/>
<path class="st0" d="M65.1,65.6c0-6.7,5.1-11.1,18.2-13.8l9.1-1.9v-4.4c0-8.1-4-11.2-10.9-11.2c-2.3,0-4.6,0.4-6.7,1.4
	c2.8,0.6,4.8,3.1,4.8,5.9c0,3.4-2.8,6.1-6.2,6.1h-0.1c-3.3,0.1-6.2-2.5-6.3-5.8c0-0.1,0-0.1,0-0.2c0-6.1,7.6-10.9,19.8-10.9
	c12.4,0,19.8,4.6,19.8,14.9v21.1c0,3.7,1.8,5.2,4.3,5.2c0.6,0,1.2-0.1,1.7-0.2v2c-1.8,1.3-5.2,2.3-9,2.3c-5.2,0-10-2.5-10.8-7.3
	c-1.7,4.5-7.4,7.5-14.7,7.5C70.3,76.3,65.1,72,65.1,65.6z M85.9,70.8c2.7,0.1,5.3-1.3,6.6-3.7V52.3L89.4,53c-7.5,1.7-10,5-10,10.2
	C79.3,68.1,82.1,70.8,85.9,70.8z"/>
<path class="st0" d="M141.4,73.2v2.2h-25.2v-2.2c4.3-0.7,5.1-1.7,5.1-4.8V35.7h-5.1v-1.9l5.1-2.1v-5.9c0-11.2,6.9-17.1,16.9-17.1
	c8.3,0,12.1,3.7,12.1,8.3c0,2.8-2.3,5.2-5.2,5.2c-2.8,0-5.1-2.3-5.1-5.2l0,0c-0.1-2.1,1.3-4.1,3.3-4.8c-0.4-0.1-0.8-0.1-1.2-0.1
	c-4,0-6.4,2.5-6.4,8.7v11.3l10.6-0.7v4l-10.6-0.7v33C135.7,71.5,136.5,72.5,141.4,73.2z"/>
<path class="st0" d="M169.1,30.8c12.2,0,19.5,7.5,19.5,18.4c0,1-0.1,2-0.2,3h-27.3c1.2,11.4,7.7,17.9,16.5,17.9
	c3.8,0.1,7.4-1.3,10.2-3.9l0.1,2.2c-3.2,4.8-9.9,7.8-18.1,7.8c-13.1,0-23.5-8.7-23.5-22.7C146.3,40.2,155.4,30.8,169.1,30.8z
	 M160.9,49.8l15-0.2c0.1-0.8,0.1-1.8,0.1-3c0-7.8-2.1-12.9-6.8-12.9c-5.2,0-8.2,5.3-8.2,14.7L160.9,49.8z"/>
<path class="st0" d="M259.7,59.6l-0.5-36c-0.1-7.1-1-8.8-6.6-9.6v-2.2h16.6V14c-5.3,0.8-6.2,2.5-6.3,9.5l-0.4,51.9h-11.1l-36.4-54
	l0.6,42.2c0.1,7.1,1,8.8,6.6,9.6v2.2h-16.7v-2.1c5.3-0.8,6.2-2.6,6.3-9.6l0.4-42.5c0-4.5-1.2-6.2-5.9-7.2v-2.2h21.2L259.7,59.6z"/>
<path class="st0" d="M290.8,30.8c12.2,0,19.5,7.5,19.5,18.4c0,1-0.1,2-0.2,3h-27.3c1.2,11.4,7.7,17.9,16.5,17.9
	c3.8,0.1,7.5-1.3,10.3-3.8v2.2c-3.2,4.8-9.9,7.8-18.1,7.8c-13.1,0-23.5-8.7-23.5-22.7C268,40.2,277.1,30.8,290.8,30.8z M282.6,49.8
	l15-0.2c0-0.8,0-1.8,0-3c0-7.8-2.1-12.9-6.8-12.9c-5.2,0-8.2,5.3-8.2,14.7V49.8z"/>
<path class="st0" d="M331.1,61.3c0,6,2.7,8.9,7.7,8.9c3,0.1,5.8-1.4,7.4-4V40.5c0-2.9-0.4-3.5-2.8-4.3l-2.3-0.7v-2l19.6-2.4v35.6
	c0,2.9,0.3,3.5,2.8,4.4l2.2,0.7v2L346.3,76v-8.1c-2.2,5-7.6,8.4-15,8.4c-8.6,0-14.5-4.6-14.5-14.2V40.5c0-2.9-0.4-3.5-2.8-4.3
	l-2.5-0.7v-2l19.5-2.4v30.2H331.1z"/>
<path class="st0" d="M365,33.8v-2.2h26v2.2c-5.1,0.7-5.7,1.8-3.7,7.7l7.2,20.8l7-20.3c2.1-6.3,1.4-7.5-3.5-8.2v-2.2h14.3v2.2
	c-3.7,0.8-4.9,1.8-7.4,8.5l-12.6,33.2h-7.4l-13.2-34.7C369.7,35.7,368.5,34.5,365,33.8z"/>
<path class="st0" d="M407.9,53.7c0-13.5,10.6-22.9,24.7-22.9s24.6,8.8,24.6,22.5c0,13.5-10.6,22.9-24.8,22.9S407.9,67.5,407.9,53.7z
	 M441.9,53.8c0-12.6-3.6-20.1-9.5-20.1s-9.1,7.3-9.1,19.5c0,12.6,3.6,20.2,9.5,20.2S441.8,66,441.9,53.8L441.9,53.8z"/>
<rect x="460.4" y="64.4" class="st0" width="11" height="11"/>
</svg>
