<svg id="Layer_1" data-name="Layer 1" xmlns="http://www.w3.org/2000/svg" viewBox="0 0 489.56 88.23"><title>logo</title><path d="M48.67,7.27c10.16,0,17.87,2,21.63,4.64L70.89,28h-2.3c-2.49-11-9-17.38-18.94-17.38-13.09,0-21,12.84-21,31.79,0,18.6,7.32,34.32,21,34.32,9.32,0,16.21-5.32,19.09-17.53H71L70.4,75.24C66.44,78,57.46,80,48.67,80c-23,0-39.16-14.4-39.16-36.57C9.51,22,25.72,7.27,48.67,7.27Z"/><path d="M74.59,69.08c0-6.69,5.06-11.13,18.23-13.82l9.11-1.89V49c0-8.1-4-11.23-10.88-11.23a15.67,15.67,0,0,0-6.73,1.41,6,6,0,0,1,4.75,5.9,6.16,6.16,0,0,1-6.34,6.12,6.07,6.07,0,0,1-6.33-6c0-6.08,7.57-10.87,19.76-10.87,12.41,0,19.85,4.57,19.85,14.88V70.27c0,3.66,1.85,5.2,4.27,5.2a6.6,6.6,0,0,0,1.72-.22v2c-1.8,1.28-5.19,2.29-9,2.29-5.24,0-10-2.46-10.83-7.26-1.67,4.49-7.44,7.48-14.71,7.48C79.83,79.78,74.59,75.51,74.59,69.08Zm20.78,5.2a7,7,0,0,0,6.56-3.7V55.83l-3.13.71c-7.48,1.71-10,5-10,10.17C88.81,71.64,91.63,74.28,95.37,74.28Z"/><path d="M150.85,76.74V78.9H125.67V76.74c4.32-.7,5.06-1.67,5.06-4.75V39.19h-5.06V37.3l5.11-2.07v-5.9c0-11.18,6.91-17.08,16.86-17.08,8.27,0,12.15,3.66,12.15,8.32a5.15,5.15,0,0,1-10.3,0,4.89,4.89,0,0,1,3.3-4.75,5.31,5.31,0,0,0-1.19-.09c-4,0-6.43,2.46-6.43,8.72V35.8l10.57-.66v4l-10.57-.66v33C145.17,75,146,76,150.85,76.74Z"/><path d="M178.62,34.31c12.19,0,19.5,7.52,19.5,18.44a25.88,25.88,0,0,1-.22,3H170.56c1.19,11.44,7.66,17.92,16.51,17.92a14.39,14.39,0,0,0,10.21-3.88l.05,2.16c-3.22,4.84-9.91,7.79-18.1,7.79-13.12,0-23.46-8.67-23.46-22.67C155.77,43.73,164.88,34.31,178.62,34.31Zm-8.24,19,15-.18c.05-.83.05-1.76.05-3,0-7.84-2.12-12.86-6.78-12.86-5.24,0-8.24,5.28-8.24,14.7Z"/><path d="M269.21,63.1l-.52-36c-.14-7.13-1-8.76-6.61-9.6v-2.2h16.64v2.16c-5.28.84-6.2,2.55-6.29,9.55L272,78.9H260.89l-36.36-54,.57,42.17c.05,7.13,1,8.76,6.56,9.6v2.2H215V76.74c5.29-.83,6.25-2.55,6.3-9.55l.35-42.52c0-4.54-1.23-6.21-5.85-7.18V15.33H237Z"/><path d="M300.29,34.31c12.2,0,19.5,7.52,19.5,18.44a25.88,25.88,0,0,1-.22,3H292.24c1.19,11.44,7.66,17.92,16.5,17.92A14.4,14.4,0,0,0,319,69.83L319,72c-3.21,4.84-9.9,7.79-18.09,7.79-13.12,0-23.46-8.67-23.46-22.67C277.45,43.73,286.56,34.31,300.29,34.31Zm-8.23,19,15-.18c0-.83,0-1.76,0-3,0-7.84-2.11-12.86-6.78-12.86-5.24,0-8.23,5.28-8.23,14.7Z"/><path d="M340.59,64.81c0,6,2.73,8.9,7.66,8.9a8.19,8.19,0,0,0,7.35-4V44c0-2.86-.35-3.48-2.81-4.31L350.5,39V37l19.59-2.38V70.23c0,2.86.31,3.48,2.77,4.36l2.25.66v2l-19.42,2.16v-8.1c-2.24,5-7.61,8.45-15.05,8.45-8.63,0-14.53-4.58-14.53-14.17V44c0-2.86-.35-3.48-2.77-4.31L321.05,39V37l19.54-2.38Z"/><path d="M374.48,37.34v-2.2h26v2.2c-5.06.66-5.72,1.85-3.74,7.66l7.22,20.83,7-20.3c2.11-6.29,1.37-7.53-3.52-8.19v-2.2h14.26v2.2c-3.74.75-4.93,1.85-7.44,8.54L401.77,79h-7.35L381.17,44.26C379.19,39.19,378,38.05,374.48,37.34Z"/><path d="M417.36,57.2c0-13.52,10.61-22.89,24.74-22.89s24.6,8.76,24.6,22.54c0,13.51-10.6,22.93-24.78,22.93S417.36,71,417.36,57.2Zm34,.13c0-12.59-3.65-20.12-9.51-20.12s-9.15,7.35-9.15,19.5c0,12.59,3.65,20.16,9.55,20.16S451.34,69.48,451.34,57.33Z"/><rect x="469.86" y="67.9" width="11" height="11"/></svg>