<?xml version="1.0" encoding="utf-8"?>
<!-- Generator: Adobe Illustrator 23.0.2, SVG Export Plug-In . SVG Version: 6.00 Build 0)  -->
<svg version="1.1" id="Layer_1" xmlns="http://www.w3.org/2000/svg" xmlns:xlink="http://www.w3.org/1999/xlink" x="0px" y="0px"
	 viewBox="0 0 489.6 88.2" style="enable-background:new 0 0 489.6 88.2;" xml:space="preserve">
<style type="text/css">
	.st0{fill:#FFFFFF;}
</style>
<title>logo</title>
<path class="st0" d="M48.7,7.3c10.2,0,17.9,2,21.6,4.6L70.9,28h-2.3c-2.5-11-9-17.4-18.9-17.4c-13.1,0-21,12.8-21,31.8
	c0,18.6,7.3,34.3,21,34.3c9.3,0,16.2-5.3,19.1-17.5H71l-0.6,16C66.4,78,57.5,80,48.7,80c-23,0-39.2-14.4-39.2-36.6
	C9.5,22,25.7,7.3,48.7,7.3z"/>
<path class="st0" d="M74.6,69.1c0-6.7,5.1-11.1,18.2-13.8l9.1-1.9V49c0-8.1-4-11.2-10.9-11.2c-2.3,0-4.6,0.4-6.7,1.4
	c2.8,0.6,4.8,3.1,4.8,5.9c0,3.4-2.8,6.1-6.2,6.1c0,0-0.1,0-0.1,0c-3.3,0.1-6.2-2.5-6.3-5.8c0-0.1,0-0.1,0-0.2
	c0-6.1,7.6-10.9,19.8-10.9c12.4,0,19.8,4.6,19.8,14.9v21.1c0,3.7,1.8,5.2,4.3,5.2c0.6,0,1.2-0.1,1.7-0.2v2c-1.8,1.3-5.2,2.3-9,2.3
	c-5.2,0-10-2.5-10.8-7.3c-1.7,4.5-7.4,7.5-14.7,7.5C79.8,79.8,74.6,75.5,74.6,69.1z M95.4,74.3c2.7,0.1,5.3-1.3,6.6-3.7V55.8
	l-3.1,0.7c-7.5,1.7-10,5-10,10.2C88.8,71.6,91.6,74.3,95.4,74.3z"/>
<path class="st0" d="M150.9,76.7v2.2h-25.2v-2.2c4.3-0.7,5.1-1.7,5.1-4.8V39.2h-5.1v-1.9l5.1-2.1v-5.9c0-11.2,6.9-17.1,16.9-17.1
	c8.3,0,12.1,3.7,12.1,8.3c0,2.8-2.3,5.2-5.2,5.2c-2.8,0-5.1-2.3-5.1-5.2l0,0c-0.1-2.1,1.3-4.1,3.3-4.8c-0.4-0.1-0.8-0.1-1.2-0.1
	c-4,0-6.4,2.5-6.4,8.7v11.3l10.6-0.7v4l-10.6-0.7v33C145.2,75,146,76,150.9,76.7z"/>
<path class="st0" d="M178.6,34.3c12.2,0,19.5,7.5,19.5,18.4c0,1-0.1,2-0.2,3h-27.3c1.2,11.4,7.7,17.9,16.5,17.9
	c3.8,0.1,7.4-1.3,10.2-3.9l0.1,2.2c-3.2,4.8-9.9,7.8-18.1,7.8c-13.1,0-23.5-8.7-23.5-22.7C155.8,43.7,164.9,34.3,178.6,34.3z
	 M170.4,53.3l15-0.2c0.1-0.8,0.1-1.8,0.1-3c0-7.8-2.1-12.9-6.8-12.9c-5.2,0-8.2,5.3-8.2,14.7L170.4,53.3z"/>
<path class="st0" d="M269.2,63.1l-0.5-36c-0.1-7.1-1-8.8-6.6-9.6v-2.2h16.6v2.2c-5.3,0.8-6.2,2.5-6.3,9.5L272,78.9h-11.1l-36.4-54
	l0.6,42.2c0.1,7.1,1,8.8,6.6,9.6v2.2H215v-2.1c5.3-0.8,6.2-2.6,6.3-9.6l0.4-42.5c0-4.5-1.2-6.2-5.9-7.2v-2.2H237L269.2,63.1z"/>
<path class="st0" d="M300.3,34.3c12.2,0,19.5,7.5,19.5,18.4c0,1-0.1,2-0.2,3h-27.3c1.2,11.4,7.7,17.9,16.5,17.9
	c3.8,0.1,7.5-1.3,10.3-3.8V72c-3.2,4.8-9.9,7.8-18.1,7.8c-13.1,0-23.5-8.7-23.5-22.7C277.5,43.7,286.6,34.3,300.3,34.3z M292.1,53.3
	l15-0.2c0-0.8,0-1.8,0-3c0-7.8-2.1-12.9-6.8-12.9c-5.2,0-8.2,5.3-8.2,14.7L292.1,53.3z"/>
<path class="st0" d="M340.6,64.8c0,6,2.7,8.9,7.7,8.9c3,0.1,5.8-1.4,7.4-4V44c0-2.9-0.4-3.5-2.8-4.3l-2.3-0.7v-2l19.6-2.4v35.6
	c0,2.9,0.3,3.5,2.8,4.4l2.2,0.7v2l-19.4,2.2v-8.1c-2.2,5-7.6,8.4-15,8.4c-8.6,0-14.5-4.6-14.5-14.2V44c0-2.9-0.4-3.5-2.8-4.3L321,39
	v-2l19.5-2.4V64.8z"/>
<path class="st0" d="M374.5,37.3v-2.2h26v2.2c-5.1,0.7-5.7,1.8-3.7,7.7l7.2,20.8l7-20.3c2.1-6.3,1.4-7.5-3.5-8.2v-2.2h14.3v2.2
	c-3.7,0.8-4.9,1.8-7.4,8.5L401.8,79h-7.4l-13.2-34.7C379.2,39.2,378,38,374.5,37.3z"/>
<path class="st0" d="M417.4,57.2c0-13.5,10.6-22.9,24.7-22.9s24.6,8.8,24.6,22.5c0,13.5-10.6,22.9-24.8,22.9S417.4,71,417.4,57.2z
	 M451.4,57.3c0-12.6-3.6-20.1-9.5-20.1s-9.1,7.3-9.1,19.5c0,12.6,3.6,20.2,9.5,20.2S451.3,69.5,451.4,57.3L451.4,57.3z"/>
<rect x="469.9" y="67.9" class="st0" width="11" height="11"/>
</svg>
